<?xml version="1.0" standalone="no"?>
<!DOCTYPE svg PUBLIC "-//W3C//DTD SVG 20010904//EN"
 "http://www.w3.org/TR/2001/REC-SVG-20010904/DTD/svg10.dtd">
<svg version="1.0" xmlns="http://www.w3.org/2000/svg"
 width="700.000000pt" height="700.000000pt" viewBox="0 0 700.000000 700.000000"
 preserveAspectRatio="xMidYMid meet">
<metadata>
Created by potrace 1.11, written by Peter Selinger 2001-2013
</metadata>
<g transform="translate(0.000000,700.000000) scale(0.100000,-0.100000)"
fill="#000000" stroke="none">
<path d="M3427 6994 c-1 -1 -58 -5 -127 -8 -573 -27 -1170 -218 -1670 -535
-410 -260 -775 -616 -1039 -1013 -120 -182 -224 -371 -297 -539 -40 -94 -114
-286 -119 -309 -2 -8 -15 -51 -29 -95 -23 -73 -49 -173 -62 -235 -27 -134 -40
-207 -50 -279 -3 -25 -8 -57 -10 -71 -19 -119 -26 -543 -12 -720 9 -117 35
-284 63 -417 21 -97 35 -151 75 -298 13 -46 79 -236 94 -270 8 -16 31 -70 52
-120 21 -49 50 -112 65 -140 89 -168 116 -216 165 -296 541 -874 1426 -1455
2469 -1621 189 -30 748 -35 945 -8 74 10 146 21 160 23 117 23 202 42 298 68
584 154 1123 462 1553 889 240 238 353 380 555 700 46 73 154 281 197 380 8
19 24 55 35 80 65 147 182 547 207 710 4 25 9 54 11 65 2 11 7 40 10 65 3 25
7 56 10 70 34 207 21 834 -21 980 -2 8 -7 35 -10 60 -4 25 -11 65 -17 90 -5
25 -12 56 -14 70 -9 49 -74 277 -105 365 -77 223 -215 516 -322 683 -26 40
-47 75 -47 78 0 3 17 42 39 87 47 99 70 199 73 304 1 68 -3 105 -18 187 -13
70 -74 198 -129 272 -223 296 -629 385 -953 207 l-42 -24 -113 67 c-99 59
-358 194 -372 194 -3 0 -24 9 -48 19 -183 84 -538 194 -694 216 -11 2 -29 6
-40 9 -17 5 -100 18 -208 31 -27 4 -61 8 -75 11 -37 6 -428 22 -433 18z m313
-308 c52 -3 105 -8 117 -10 12 -3 48 -7 80 -11 32 -3 65 -8 73 -10 8 -2 31 -6
50 -9 186 -29 490 -119 690 -204 96 -40 297 -142 382 -194 l57 -34 -25 -43
c-66 -109 -103 -263 -98 -404 14 -387 350 -711 736 -708 140 1 270 33 369 92
l49 29 30 -48 c61 -95 198 -381 248 -517 70 -191 139 -443 157 -570 2 -16 8
-61 14 -100 6 -38 13 -97 16 -130 3 -33 8 -78 10 -100 6 -54 7 -404 1 -435 -2
-14 -7 -61 -10 -105 -4 -44 -10 -105 -16 -135 -5 -30 -11 -71 -14 -90 -62
-416 -263 -906 -529 -1290 -136 -196 -379 -462 -562 -616 -252 -212 -576 -406
-878 -525 -121 -48 -293 -106 -340 -115 -11 -2 -34 -8 -51 -13 -40 -12 -161
-39 -206 -46 -19 -3 -60 -10 -90 -15 -151 -26 -266 -35 -490 -35 -333 0 -518
23 -825 101 -289 74 -615 214 -878 377 -96 60 -316 221 -394 288 -66 58 -297
291 -355 359 -332 391 -568 864 -682 1368 -55 240 -76 449 -76 727 0 145 3
197 15 315 9 77 29 216 40 270 3 14 7 36 10 49 20 110 112 423 144 496 5 11
33 74 61 140 226 520 599 977 1074 1318 61 43 156 106 211 139 114 68 394 208
416 208 8 0 19 4 24 9 14 13 255 95 367 125 103 28 315 72 393 81 28 3 66 8
85 10 19 3 78 7 130 11 52 3 96 7 97 8 4 4 278 -2 373 -8z"/>
<path d="M3265 5564 c-779 -88 -1445 -611 -1719 -1347 -36 -97 -80 -248 -91
-317 -3 -19 -8 -48 -11 -65 -18 -105 -26 -198 -27 -323 -1 -112 9 -278 18
-304 2 -7 6 -31 9 -53 10 -82 38 -194 77 -310 42 -127 49 -144 111 -271 l40
-81 -35 -64 c-49 -90 -70 -169 -70 -269 -1 -103 15 -173 58 -265 31 -66 44
-84 99 -145 116 -128 285 -198 461 -192 99 4 205 37 290 91 18 12 32 8 108
-28 143 -68 330 -136 429 -157 210 -44 290 -52 493 -52 159 1 227 7 377 32
169 28 421 114 575 197 92 49 230 133 243 148 3 3 12 11 21 16 109 67 330 283
441 432 207 276 356 622 394 918 3 22 7 46 10 53 8 26 18 179 18 287 -1 126
-13 275 -29 355 -3 14 -8 39 -11 55 -23 138 -100 357 -180 519 -263 527 -749
926 -1316 1080 -238 65 -539 88 -783 60z m460 -297 c11 -2 43 -7 70 -11 28 -5
100 -21 162 -37 505 -130 932 -484 1157 -961 47 -98 104 -254 120 -329 14 -62
25 -118 31 -159 4 -25 9 -58 12 -75 11 -67 9 -335 -4 -424 -88 -648 -499
-1187 -1089 -1429 -86 -35 -243 -86 -300 -96 -152 -28 -257 -39 -384 -39 -90
0 -210 8 -256 17 -12 3 -39 7 -59 10 -116 19 -327 86 -428 138 -46 23 -57 33
-52 46 51 122 62 273 27 393 -75 262 -324 445 -592 434 -73 -3 -154 -21 -221
-49 -31 -13 -127 233 -167 429 -30 144 -36 202 -36 365 1 266 35 443 137 695
22 55 43 105 48 110 4 6 21 36 37 66 132 251 379 507 637 661 302 180 600 259
955 252 96 -2 184 -5 195 -7z"/>
<path d="M3315 4291 c-299 -75 -522 -290 -605 -586 -25 -85 -33 -264 -16 -354
27 -156 113 -319 225 -432 205 -205 474 -283 766 -225 72 15 206 76 284 129
53 36 146 126 188 182 59 78 124 216 138 297 3 12 9 46 14 73 10 50 8 226 -3
276 -32 145 -121 312 -226 420 -80 83 -216 165 -340 204 -111 36 -314 43 -425
16z m341 -301 c139 -45 251 -143 312 -271 40 -84 56 -171 49 -262 -9 -103 -15
-127 -54 -202 -161 -312 -582 -378 -829 -131 -95 95 -142 200 -151 336 -15
240 132 457 359 529 89 29 227 29 314 1z"/>
</g>
</svg>
